<?xml version="1.0" standalone="no"?>
<!DOCTYPE svg PUBLIC "-//W3C//DTD SVG 20010904//EN"
 "http://www.w3.org/TR/2001/REC-SVG-20010904/DTD/svg10.dtd">
<svg version="1.0" xmlns="http://www.w3.org/2000/svg"
 width="970.000000pt" height="339.000000pt" viewBox="0 0 970.000000 339.000000"
 preserveAspectRatio="xMidYMid meet">

<g transform="translate(0.000000,339.000000) scale(0.100000,-0.100000)"
fill="#000000" stroke="none">
<path d="M1715 2613 c-353 -18 -677 -252 -809 -584 -48 -124 -60 -193 -60
-349 1 -168 18 -246 83 -386 52 -109 111 -192 197 -275 115 -109 233 -177 391
-226 80 -24 102 -27 253 -27 151 0 173 3 253 27 213 65 397 198 517 372 48 70
106 199 131 295 32 120 32 338 0 455 -118 435 -507 719 -956 698z m137 -394
c29 -7 37 -15 40 -36 3 -23 11 -28 63 -43 85 -23 205 -88 205 -110 0 -6 -97
-144 -125 -178 -2 -2 -21 8 -42 22 -62 41 -148 67 -225 68 -77 0 -108 -16
-108 -59 0 -31 33 -45 194 -83 206 -48 289 -105 323 -219 45 -156 -47 -315
-214 -363 l-73 -22 0 -44 0 -45 -62 7 c-125 13 -128 15 -128 50 0 31 -2 32
-61 45 -34 7 -86 23 -117 37 -57 25 -141 83 -142 97 0 9 118 187 125 187 3 0
25 -15 50 -34 117 -90 324 -113 370 -42 32 48 -3 74 -135 101 -208 42 -308 94
-354 186 -29 59 -35 149 -15 210 30 87 118 165 219 193 l60 17 0 49 0 48 58
-15 c31 -8 74 -19 94 -24z"/>
<path d="M6511 2304 c-85 -71 -38 -214 70 -214 76 0 129 49 129 120 0 101
-122 159 -199 94z"/>
<path d="M3227 2030 c-97 -25 -175 -87 -219 -178 -31 -62 -33 -74 -33 -167 0
-81 4 -109 22 -147 32 -71 103 -141 176 -174 55 -25 74 -28 162 -28 91 -1 106
2 165 30 113 54 180 142 199 263 25 158 -47 304 -184 372 -56 27 -78 32 -158
35 -50 2 -109 -1 -130 -6z m181 -200 c48 -29 72 -75 72 -138 0 -29 -6 -67 -14
-86 -41 -97 -178 -114 -243 -29 -36 46 -43 140 -16 193 38 74 132 102 201 60z"/>
<path d="M4106 2025 c-21 -7 -58 -28 -82 -45 l-44 -31 0 40 0 41 -105 0 -105
0 0 -340 0 -340 105 0 105 0 0 213 c0 199 1 215 19 231 29 27 90 45 149 46
l52 0 0 100 0 100 -27 0 c-16 -1 -45 -7 -67 -15z"/>
<path d="M4414 2029 c-69 -20 -127 -71 -164 -143 -34 -67 -35 -72 -35 -185 0
-104 3 -122 26 -171 47 -102 128 -159 234 -167 77 -7 131 8 189 52 l46 36 0
-38 c0 -55 -38 -123 -80 -145 -71 -37 -221 -17 -282 39 -10 9 -20 14 -22 12
-15 -18 -86 -138 -86 -147 0 -6 33 -27 73 -47 96 -47 190 -62 300 -46 137 19
226 72 275 165 l27 51 3 368 3 367 -106 0 -105 0 0 -42 0 -42 -27 27 c-62 59
-177 83 -269 56z m223 -190 c62 -23 73 -44 73 -139 0 -77 -3 -89 -22 -108 -72
-67 -197 -52 -238 29 -69 134 48 271 187 218z"/>
<path d="M5185 2026 c-56 -13 -128 -46 -162 -74 l-22 -17 40 -72 40 -72 54 30
c94 53 210 49 255 -8 13 -17 20 -41 20 -71 0 -44 -1 -45 -19 -28 -35 31 -118
56 -189 56 -72 0 -150 -29 -184 -66 -30 -34 -48 -91 -48 -152 0 -111 67 -190
183 -214 50 -11 68 -10 124 5 37 10 82 29 100 43 l33 25 0 -30 0 -31 111 0
111 0 -4 248 c-3 276 -9 302 -79 370 -65 63 -232 90 -364 58z m199 -419 c21
-14 26 -25 26 -58 0 -37 -3 -41 -42 -59 -51 -23 -87 -25 -133 -6 -35 15 -55
42 -55 74 0 19 33 54 60 65 27 11 118 1 144 -16z"/>
<path d="M6063 2021 c-28 -9 -67 -29 -87 -44 l-35 -27 -3 37 -3 38 -105 0
-105 0 -3 -337 -2 -338 110 0 110 0 0 218 c0 214 0 219 23 239 35 33 62 43
112 43 38 0 52 -5 76 -29 l29 -29 0 -221 0 -221 110 0 110 0 0 245 c0 286 -7
330 -58 384 -59 62 -173 79 -279 42z"/>
<path d="M8233 2025 c-102 -31 -176 -97 -222 -195 -22 -46 -26 -69 -26 -145 0
-82 3 -97 33 -157 74 -150 230 -220 419 -188 75 12 193 61 193 80 0 6 -19 39
-42 73 -22 34 -42 63 -42 64 -1 1 -25 -10 -54 -24 -94 -46 -210 -32 -261 33
-42 54 -42 54 220 54 l242 0 -6 74 c-15 172 -100 289 -240 331 -61 18 -157 18
-214 0z m177 -171 c37 -15 70 -54 70 -84 0 -6 -49 -10 -140 -10 -77 0 -140 3
-140 8 0 4 9 22 20 40 36 58 113 77 190 46z"/>
<path d="M6480 1690 l0 -340 105 0 105 0 0 340 0 340 -105 0 -105 0 0 -340z"/>
<path d="M6760 1935 l0 -94 134 -3 133 -3 -133 -160 -133 -160 0 -82 -1 -83
285 0 285 0 0 90 0 90 -140 0 c-77 0 -140 2 -140 5 0 2 61 78 135 169 l135
164 0 81 0 81 -280 0 -280 0 0 -95z"/>
<path d="M7380 1935 l0 -94 134 -3 133 -3 -133 -163 -134 -164 0 -79 0 -79
285 0 285 0 0 90 0 89 -141 3 -141 3 136 165 135 165 1 83 0 82 -280 0 -280 0
0 -95z"/>
</g>
</svg>
